<svg width="24" height="25" viewBox="0 0 24 25" fill="none" xmlns="http://www.w3.org/2000/svg">
<path d="M23.8886 13.2334C23.8886 12.2441 23.8083 11.5221 23.6346 10.7734H12.3374V15.2388H18.9686C18.8349 16.3485 18.113 18.0196 16.5086 19.1426L16.4861 19.2921L20.0581 22.0592L20.3056 22.0839C22.5783 19.9849 23.8886 16.8966 23.8886 13.2334Z" fill="#4285F4"/>
<path d="M12.3374 24.9984C15.5861 24.9984 18.3135 23.9288 20.3056 22.0839L16.5086 19.1426C15.4926 19.8511 14.1289 20.3458 12.3374 20.3458C9.15551 20.3458 6.45491 18.2469 5.49222 15.3457L5.35112 15.3577L1.63695 18.2321L1.58838 18.3672C3.56703 22.2977 7.63134 24.9984 12.3374 24.9984Z" fill="#34A853"/>
<path d="M5.49221 15.3457C5.23819 14.5971 5.09119 13.7948 5.09119 12.966C5.09119 12.137 5.23819 11.3349 5.47884 10.5862L5.47212 10.4268L1.71141 7.50616L1.58836 7.56469C0.772866 9.19577 0.304932 11.0274 0.304932 12.966C0.304932 14.9045 0.772866 16.7361 1.58836 18.3672L5.49221 15.3457Z" fill="#FBBC05"/>
<path d="M12.3378 5.58611C14.5972 5.58611 16.1212 6.56208 16.9903 7.37767L20.3861 4.06203C18.3005 2.12348 15.5865 0.933594 12.3378 0.933594C7.6317 0.933594 3.5674 3.63419 1.58875 7.56477L5.47923 10.5863C6.45528 7.68514 9.15588 5.58611 12.3378 5.58611Z" fill="#EB4335"/>
</svg>
